<?xml version="1.0" standalone="no"?>
<!DOCTYPE svg PUBLIC "-//W3C//DTD SVG 20010904//EN"
 "http://www.w3.org/TR/2001/REC-SVG-20010904/DTD/svg10.dtd">
<svg version="1.0" xmlns="http://www.w3.org/2000/svg"
 width="900.000000pt" height="900.000000pt" viewBox="0 0 900.000000 900.000000"
 preserveAspectRatio="xMidYMid meet">
<metadata>
Created by potrace 1.11, written by Peter Selinger 2001-2013
</metadata>
<g transform="translate(0.000000,900.000000) scale(0.100000,-0.100000)"
fill="#000000" stroke="none">
<path d="M590 7214 c0 -5 424 -746 598 -1044 11 -19 33 -57 48 -85 15 -27 42
-74 60 -103 19 -29 34 -54 34 -57 0 -2 13 -26 29 -53 15 -26 39 -68 53 -93 14
-24 90 -156 170 -294 80 -137 180 -311 222 -385 43 -74 82 -142 87 -150 4 -8
27 -45 49 -83 22 -37 40 -69 40 -71 0 -2 37 -66 81 -142 45 -77 101 -173 124
-214 74 -130 80 -141 195 -340 62 -107 154 -267 205 -355 51 -88 145 -252 210
-365 66 -113 128 -221 139 -242 12 -20 43 -74 70 -120 26 -45 62 -108 79 -138
17 -30 48 -84 69 -119 21 -34 38 -65 38 -67 0 -2 18 -33 40 -69 22 -36 40 -68
40 -71 0 -3 8 -18 18 -32 11 -15 32 -52 49 -82 17 -30 44 -78 60 -106 17 -27
41 -70 55 -95 22 -38 101 -174 200 -344 16 -27 34 -60 40 -72 6 -13 14 -23 18
-23 6 0 103 163 220 368 30 53 225 390 320 552 53 91 99 172 103 180 4 8 13
24 20 35 7 11 36 62 66 113 l54 93 85 -143 c67 -114 250 -430 372 -643 322
-564 322 -565 330 -565 3 0 48 75 100 166 52 92 104 183 116 203 48 82 186
321 312 541 74 129 161 279 193 333 33 54 59 101 59 103 0 3 16 30 35 60 19
30 35 56 35 58 0 3 82 145 182 318 100 172 191 331 203 353 12 22 37 65 55 95
18 30 44 75 57 99 14 24 89 154 167 290 184 317 368 636 393 681 11 19 53 91
93 160 40 69 87 150 103 180 30 54 98 170 117 200 6 8 13 22 17 30 4 8 31 55
60 104 29 49 53 90 53 91 0 1 35 63 78 137 43 74 81 141 85 149 4 8 18 32 32
54 14 22 28 47 32 55 4 8 16 31 28 50 12 19 92 157 178 306 85 149 164 285
174 302 106 182 163 283 163 287 0 3 -528 5 -1173 5 l-1173 0 -64 -112 c-36
-62 -69 -121 -75 -130 -56 -95 -115 -203 -115 -210 0 -4 -4 -8 -10 -8 -5 0
-10 -4 -10 -10 0 -5 -20 -42 -44 -82 -24 -40 -105 -181 -181 -313 -76 -132
-168 -292 -205 -355 -37 -63 -77 -131 -87 -150 -11 -19 -113 -197 -228 -395
-114 -198 -215 -373 -223 -390 -9 -16 -22 -37 -28 -45 -6 -8 -26 -42 -44 -75
-17 -33 -35 -64 -40 -70 -4 -5 -19 -30 -32 -55 -14 -25 -91 -157 -170 -295
-80 -137 -188 -324 -240 -415 -173 -299 -319 -553 -416 -720 -52 -91 -101
-176 -108 -189 l-12 -23 -15 23 c-12 20 -72 124 -197 343 -53 94 -249 433
-291 504 -27 45 -49 85 -49 88 0 3 -8 18 -19 32 -10 15 -29 47 -43 72 -14 25
-74 131 -135 235 -60 105 -190 330 -288 500 -227 395 -349 606 -390 675 -18
30 -44 75 -57 100 -14 25 -67 117 -118 205 -51 88 -104 180 -118 205 -14 25
-71 124 -127 220 -56 96 -105 182 -108 190 -4 8 -16 29 -27 45 -11 17 -23 36
-27 44 -7 15 -127 225 -143 251 -5 8 -48 84 -97 168 l-88 152 -70 0 c-38 1
-217 3 -397 5 -181 3 -328 2 -328 -1z m6616 -697 c3 -3 -5 -25 -19 -49 -14
-23 -50 -88 -82 -143 -31 -55 -67 -118 -80 -140 -12 -22 -55 -96 -95 -165 -40
-69 -84 -145 -98 -170 -33 -59 -160 -281 -171 -300 -9 -15 -205 -356 -227
-395 -6 -11 -39 -69 -74 -130 -35 -60 -71 -123 -80 -140 -9 -16 -78 -136 -152
-265 -123 -213 -663 -1156 -711 -1240 -11 -19 -30 -53 -42 -75 -73 -128 -103
-176 -107 -169 -3 5 -20 36 -38 69 -18 33 -42 76 -53 95 -11 19 -31 55 -45 80
-14 25 -44 79 -67 120 -23 41 -56 100 -73 130 -16 30 -46 84 -66 119 -20 36
-34 71 -31 79 5 14 105 189 215 377 29 50 63 108 75 130 13 22 46 81 75 130
29 50 60 104 70 120 23 40 115 199 180 310 29 50 61 106 72 125 34 59 315 545
423 730 56 96 113 195 127 220 14 25 58 101 98 170 40 69 106 181 145 250 61
106 77 126 101 130 37 7 723 4 730 -3z"/>
<path d="M2162 7185 c16 -31 225 -393 264 -457 19 -31 34 -59 34 -63 0 -4 8
-19 19 -33 10 -15 29 -47 43 -72 47 -84 66 -117 107 -185 23 -37 41 -69 41
-70 0 -2 40 -73 89 -157 48 -84 131 -227 183 -318 52 -91 224 -389 382 -663
157 -273 298 -518 313 -545 14 -26 36 -63 48 -82 12 -19 25 -42 28 -50 4 -8
16 -28 26 -45 10 -16 61 -104 113 -193 52 -90 99 -165 103 -165 7 -2 290 475
326 548 5 11 22 41 38 67 l29 46 -104 184 c-57 100 -108 190 -113 198 -8 12
-175 300 -221 380 -4 8 -27 46 -49 83 -23 38 -41 71 -41 75 0 4 -11 23 -23 42
-13 19 -37 60 -54 90 -17 30 -97 170 -178 310 -81 140 -157 273 -170 295 -12
22 -64 112 -115 200 -104 179 -121 209 -151 263 -12 20 -45 78 -74 127 -29 50
-65 113 -80 140 -15 28 -32 55 -37 60 -6 6 -151 10 -398 10 -385 0 -388 0
-378 -20z"/>
</g>
</svg>
